TITLE ""
FILE "TOEIC LR Kinnojyukugo_02.mp3" MP3
  TRACK 01 AUDIO
    TITLE "TOEIC LR Kinnojyukugo_02_001"
    INDEX 01 00:00:00
  TRACK 02 AUDIO
    TITLE "TOEIC LR Kinnojyukugo_02_002"
    INDEX 01 00:00:12
  TRACK 03 AUDIO
    TITLE "TOEIC LR Kinnojyukugo_02_003"
    INDEX 01 00:01:59
  TRACK 04 AUDIO
    TITLE "TOEIC LR Kinnojyukugo_02_004"
    INDEX 01 00:02:39
  TRACK 05 AUDIO
    TITLE "TOEIC LR Kinnojyukugo_02_005"
    INDEX 01 00:05:02
  TRACK 06 AUDIO
    TITLE "TOEIC LR Kinnojyukugo_02_006"
    INDEX 01 00:06:34
  TRACK 07 AUDIO
    TITLE "TOEIC LR Kinnojyukugo_02_007"
    INDEX 01 00:07:46
  TRACK 08 AUDIO
    TITLE "TOEIC LR Kinnojyukugo_02_008"
    INDEX 01 00:09:19
  TRACK 09 AUDIO
    TITLE "TOEIC LR Kinnojyukugo_02_009"
    INDEX 01 00:09:70
  TRACK 10 AUDIO
    TITLE "TOEIC LR Kinnojyukugo_02_010"
    INDEX 01 00:13:40
  TRACK 11 AUDIO
    TITLE "TOEIC LR Kinnojyukugo_02_011"
    INDEX 01 00:15:12
  TRACK 12 AUDIO
    TITLE "TOEIC LR Kinnojyukugo_02_012"
    INDEX 01 00:16:25
  TRACK 13 AUDIO
    TITLE "TOEIC LR Kinnojyukugo_02_013"
    INDEX 01 00:17:32
  TRACK 14 AUDIO
    TITLE "TOEIC LR Kinnojyukugo_02_014"
    INDEX 01 00:18:08
  TRACK 15 AUDIO
    TITLE "TOEIC LR Kinnojyukugo_02_015"
    INDEX 01 00:21:09
  TRACK 16 AUDIO
    TITLE "TOEIC LR Kinnojyukugo_02_016"
    INDEX 01 00:23:05
  TRACK 17 AUDIO
    TITLE "TOEIC LR Kinnojyukugo_02_017"
    INDEX 01 00:24:23
  TRACK 18 AUDIO
    TITLE "TOEIC LR Kinnojyukugo_02_018"
    INDEX 01 00:25:40
  TRACK 19 AUDIO
    TITLE "TOEIC LR Kinnojyukugo_02_019"
    INDEX 01 00:26:18
  TRACK 20 AUDIO
    TITLE "TOEIC LR Kinnojyukugo_02_020"
    INDEX 01 00:28:40
  TRACK 21 AUDIO
    TITLE "TOEIC LR Kinnojyukugo_02_021"
    INDEX 01 00:30:09
  TRACK 22 AUDIO
    TITLE "TOEIC LR Kinnojyukugo_02_022"
    INDEX 01 00:31:21
  TRACK 23 AUDIO
    TITLE "TOEIC LR Kinnojyukugo_02_023"
    INDEX 01 00:32:55
  TRACK 24 AUDIO
    TITLE "TOEIC LR Kinnojyukugo_02_024"
    INDEX 01 00:33:31
  TRACK 25 AUDIO
    TITLE "TOEIC LR Kinnojyukugo_02_025"
    INDEX 01 00:37:09
  TRACK 26 AUDIO
    TITLE "TOEIC LR Kinnojyukugo_02_026"
    INDEX 01 00:39:53
  TRACK 27 AUDIO
    TITLE "TOEIC LR Kinnojyukugo_02_027"
    INDEX 01 00:40:65
  TRACK 28 AUDIO
    TITLE "TOEIC LR Kinnojyukugo_02_028"
    INDEX 01 00:42:54
  TRACK 29 AUDIO
    TITLE "TOEIC LR Kinnojyukugo_02_029"
    INDEX 01 00:43:28
  TRACK 30 AUDIO
    TITLE "TOEIC LR Kinnojyukugo_02_030"
    INDEX 01 00:46:28
  TRACK 31 AUDIO
    TITLE "TOEIC LR Kinnojyukugo_02_031"
    INDEX 01 00:48:03
  TRACK 32 AUDIO
    TITLE "TOEIC LR Kinnojyukugo_02_032"
    INDEX 01 00:49:17
  TRACK 33 AUDIO
    TITLE "TOEIC LR Kinnojyukugo_02_033"
    INDEX 01 00:50:34
  TRACK 34 AUDIO
    TITLE "TOEIC LR Kinnojyukugo_02_034"
    INDEX 01 00:51:10
  TRACK 35 AUDIO
    TITLE "TOEIC LR Kinnojyukugo_02_035"
    INDEX 01 00:53:36
  TRACK 36 AUDIO
    TITLE "TOEIC LR Kinnojyukugo_02_036"
    INDEX 01 00:54:53
  TRACK 37 AUDIO
    TITLE "TOEIC LR Kinnojyukugo_02_037"
    INDEX 01 00:55:68
  TRACK 38 AUDIO
    TITLE "TOEIC LR Kinnojyukugo_02_038"
    INDEX 01 00:58:61
  TRACK 39 AUDIO
    TITLE "TOEIC LR Kinnojyukugo_02_039"
    INDEX 01 00:59:35
  TRACK 40 AUDIO
    TITLE "TOEIC LR Kinnojyukugo_02_040"
    INDEX 01 01:02:19
  TRACK 41 AUDIO
    TITLE "TOEIC LR Kinnojyukugo_02_041"
    INDEX 01 01:03:32
  TRACK 42 AUDIO
    TITLE "TOEIC LR Kinnojyukugo_02_042"
    INDEX 01 01:04:44
  TRACK 43 AUDIO
    TITLE "TOEIC LR Kinnojyukugo_02_043"
    INDEX 01 01:05:63
  TRACK 44 AUDIO
    TITLE "TOEIC LR Kinnojyukugo_02_044"
    INDEX 01 01:06:37
  TRACK 45 AUDIO
    TITLE "TOEIC LR Kinnojyukugo_02_045"
    INDEX 01 01:08:30
  TRACK 46 AUDIO
    TITLE "TOEIC LR Kinnojyukugo_02_046"
    INDEX 01 01:10:01
  TRACK 47 AUDIO
    TITLE "TOEIC LR Kinnojyukugo_02_047"
    INDEX 01 01:11:16
  TRACK 48 AUDIO
    TITLE "TOEIC LR Kinnojyukugo_02_048"
    INDEX 01 01:12:69
  TRACK 49 AUDIO
    TITLE "TOEIC LR Kinnojyukugo_02_049"
    INDEX 01 01:13:43
  TRACK 50 AUDIO
    TITLE "TOEIC LR Kinnojyukugo_02_050"
    INDEX 01 01:15:16
  TRACK 51 AUDIO
    TITLE "TOEIC LR Kinnojyukugo_02_051"
    INDEX 01 01:17:23
  TRACK 52 AUDIO
    TITLE "TOEIC LR Kinnojyukugo_02_052"
    INDEX 01 01:18:36
  TRACK 53 AUDIO
    TITLE "TOEIC LR Kinnojyukugo_02_053"
    INDEX 01 01:20:37
  TRACK 54 AUDIO
    TITLE "TOEIC LR Kinnojyukugo_02_054"
    INDEX 01 01:21:11
  TRACK 55 AUDIO
    TITLE "TOEIC LR Kinnojyukugo_02_055"
    INDEX 01 01:24:21
  TRACK 56 AUDIO
    TITLE "TOEIC LR Kinnojyukugo_02_056"
    INDEX 01 01:25:34
  TRACK 57 AUDIO
    TITLE "TOEIC LR Kinnojyukugo_02_057"
    INDEX 01 01:26:47
  TRACK 58 AUDIO
    TITLE "TOEIC LR Kinnojyukugo_02_058"
    INDEX 01 01:28:15
  TRACK 59 AUDIO
    TITLE "TOEIC LR Kinnojyukugo_02_059"
    INDEX 01 01:28:66
  TRACK 60 AUDIO
    TITLE "TOEIC LR Kinnojyukugo_02_060"
    INDEX 01 01:32:52
  TRACK 61 AUDIO
    TITLE "TOEIC LR Kinnojyukugo_02_061"
    INDEX 01 01:34:25
  TRACK 62 AUDIO
    TITLE "TOEIC LR Kinnojyukugo_02_062"
    INDEX 01 01:35:38
  TRACK 63 AUDIO
    TITLE "TOEIC LR Kinnojyukugo_02_063"
    INDEX 01 01:36:53
  TRACK 64 AUDIO
    TITLE "TOEIC LR Kinnojyukugo_02_064"
    INDEX 01 01:37:27
  TRACK 65 AUDIO
    TITLE "TOEIC LR Kinnojyukugo_02_065"
    INDEX 01 01:40:55
  TRACK 66 AUDIO
    TITLE "TOEIC LR Kinnojyukugo_02_066"
    INDEX 01 01:42:56
  TRACK 67 AUDIO
    TITLE "TOEIC LR Kinnojyukugo_02_067"
    INDEX 01 01:43:69
  TRACK 68 AUDIO
    TITLE "TOEIC LR Kinnojyukugo_02_068"
    INDEX 01 01:45:05
  TRACK 69 AUDIO
    TITLE "TOEIC LR Kinnojyukugo_02_069"
    INDEX 01 01:45:56
  TRACK 70 AUDIO
    TITLE "TOEIC LR Kinnojyukugo_02_070"
    INDEX 01 01:49:07
  TRACK 71 AUDIO
    TITLE "TOEIC LR Kinnojyukugo_02_071"
    INDEX 01 01:51:35
  TRACK 72 AUDIO
    TITLE "TOEIC LR Kinnojyukugo_02_072"
    INDEX 01 01:52:50
  TRACK 73 AUDIO
    TITLE "TOEIC LR Kinnojyukugo_02_073"
    INDEX 01 01:54:04
  TRACK 74 AUDIO
    TITLE "TOEIC LR Kinnojyukugo_02_074"
    INDEX 01 01:54:53
  TRACK 75 AUDIO
    TITLE "TOEIC LR Kinnojyukugo_02_075"
    INDEX 01 01:57:09
  TRACK 76 AUDIO
    TITLE "TOEIC LR Kinnojyukugo_02_076"
    INDEX 01 01:59:21
  TRACK 77 AUDIO
    TITLE "TOEIC LR Kinnojyukugo_02_077"
    INDEX 01 02:00:32
  TRACK 78 AUDIO
    TITLE "TOEIC LR Kinnojyukugo_02_078"
    INDEX 01 02:02:08
  TRACK 79 AUDIO
    TITLE "TOEIC LR Kinnojyukugo_02_079"
    INDEX 01 02:02:57
  TRACK 80 AUDIO
    TITLE "TOEIC LR Kinnojyukugo_02_080"
    INDEX 01 02:05:06
  TRACK 81 AUDIO
    TITLE "TOEIC LR Kinnojyukugo_02_081"
    INDEX 01 02:07:34
  TRACK 82 AUDIO
    TITLE "TOEIC LR Kinnojyukugo_02_082"
    INDEX 01 02:08:46
  TRACK 83 AUDIO
    TITLE "TOEIC LR Kinnojyukugo_02_083"
    INDEX 01 02:11:73
  TRACK 84 AUDIO
    TITLE "TOEIC LR Kinnojyukugo_02_084"
    INDEX 01 02:12:45
  TRACK 85 AUDIO
    TITLE "TOEIC LR Kinnojyukugo_02_085"
    INDEX 01 02:15:14
  TRACK 86 AUDIO
    TITLE "TOEIC LR Kinnojyukugo_02_086"
    INDEX 01 02:17:66
  TRACK 87 AUDIO
    TITLE "TOEIC LR Kinnojyukugo_02_087"
    INDEX 01 02:19:12
  TRACK 88 AUDIO
    TITLE "TOEIC LR Kinnojyukugo_02_088"
    INDEX 01 02:20:31
  TRACK 89 AUDIO
    TITLE "TOEIC LR Kinnojyukugo_02_089"
    INDEX 01 02:21:07
  TRACK 90 AUDIO
    TITLE "TOEIC LR Kinnojyukugo_02_090"
    INDEX 01 02:23:06
  TRACK 91 AUDIO
    TITLE "TOEIC LR Kinnojyukugo_02_091"
    INDEX 01 02:26:65
  TRACK 92 AUDIO
    TITLE "TOEIC LR Kinnojyukugo_02_092"
    INDEX 01 02:28:03
  TRACK 93 AUDIO
    TITLE "TOEIC LR Kinnojyukugo_02_093"
    INDEX 01 02:29:57
  TRACK 94 AUDIO
    TITLE "TOEIC LR Kinnojyukugo_02_094"
    INDEX 01 02:30:31
  TRACK 95 AUDIO
    TITLE "TOEIC LR Kinnojyukugo_02_095"
    INDEX 01 02:33:08
  TRACK 96 AUDIO
    TITLE "TOEIC LR Kinnojyukugo_02_096"
    INDEX 01 02:35:44
  TRACK 97 AUDIO
    TITLE "TOEIC LR Kinnojyukugo_02_097"
    INDEX 01 02:36:56
  TRACK 98 AUDIO
    TITLE "TOEIC LR Kinnojyukugo_02_098"
    INDEX 01 02:38:27
  TRACK 99 AUDIO
    TITLE "TOEIC LR Kinnojyukugo_02_099"
    INDEX 01 02:39:09
  TRACK 100 AUDIO
    TITLE "TOEIC LR Kinnojyukugo_02_100"
    INDEX 01 02:43:67
  TRACK 101 AUDIO
    TITLE "TOEIC LR Kinnojyukugo_02_101"
    INDEX 01 02:45:33
  TRACK 102 AUDIO
    TITLE "TOEIC LR Kinnojyukugo_02_102"
    INDEX 01 02:46:42
  TRACK 103 AUDIO
    TITLE "TOEIC LR Kinnojyukugo_02_103"
    INDEX 01 02:48:53
  TRACK 104 AUDIO
    TITLE "TOEIC LR Kinnojyukugo_02_104"
    INDEX 01 02:49:27
  TRACK 105 AUDIO
    TITLE "TOEIC LR Kinnojyukugo_02_105"
    INDEX 01 02:53:31
  TRACK 106 AUDIO
    TITLE "TOEIC LR Kinnojyukugo_02_106"
    INDEX 01 02:55:35
  TRACK 107 AUDIO
    TITLE "TOEIC LR Kinnojyukugo_02_107"
    INDEX 01 02:56:43
  TRACK 108 AUDIO
    TITLE "TOEIC LR Kinnojyukugo_02_108"
    INDEX 01 02:57:73
  TRACK 109 AUDIO
    TITLE "TOEIC LR Kinnojyukugo_02_109"
    INDEX 01 02:58:49
  TRACK 110 AUDIO
    TITLE "TOEIC LR Kinnojyukugo_02_110"
    INDEX 01 03:00:60
  TRACK 111 AUDIO
    TITLE "TOEIC LR Kinnojyukugo_02_111"
    INDEX 01 03:02:71
  TRACK 112 AUDIO
    TITLE "TOEIC LR Kinnojyukugo_02_112"
    INDEX 01 03:04:11
  TRACK 113 AUDIO
    TITLE "TOEIC LR Kinnojyukugo_02_113"
    INDEX 01 03:05:63
  TRACK 114 AUDIO
    TITLE "TOEIC LR Kinnojyukugo_02_114"
    INDEX 01 03:06:37
  TRACK 115 AUDIO
    TITLE "TOEIC LR Kinnojyukugo_02_115"
    INDEX 01 03:08:42
  TRACK 116 AUDIO
    TITLE "TOEIC LR Kinnojyukugo_02_116"
    INDEX 01 03:10:37
  TRACK 117 AUDIO
    TITLE "TOEIC LR Kinnojyukugo_02_117"
    INDEX 01 03:11:58
  TRACK 118 AUDIO
    TITLE "TOEIC LR Kinnojyukugo_02_118"
    INDEX 01 03:13:31
  TRACK 119 AUDIO
    TITLE "TOEIC LR Kinnojyukugo_02_119"
    INDEX 01 03:14:07
  TRACK 120 AUDIO
    TITLE "TOEIC LR Kinnojyukugo_02_120"
    INDEX 01 03:17:55
  TRACK 121 AUDIO
    TITLE "TOEIC LR Kinnojyukugo_02_121"
    INDEX 01 03:19:32
  TRACK 122 AUDIO
    TITLE "TOEIC LR Kinnojyukugo_02_122"
    INDEX 01 03:20:43
  TRACK 123 AUDIO
    TITLE "TOEIC LR Kinnojyukugo_02_123"
    INDEX 01 03:21:64
  TRACK 124 AUDIO
    TITLE "TOEIC LR Kinnojyukugo_02_124"
    INDEX 01 03:22:40
  TRACK 125 AUDIO
    TITLE "TOEIC LR Kinnojyukugo_02_125"
    INDEX 01 03:26:34
  TRACK 126 AUDIO
    TITLE "TOEIC LR Kinnojyukugo_02_126"
    INDEX 01 03:27:45
  TRACK 127 AUDIO
    TITLE "TOEIC LR Kinnojyukugo_02_127"
    INDEX 01 03:28:58
  TRACK 128 AUDIO
    TITLE "TOEIC LR Kinnojyukugo_02_128"
    INDEX 01 03:29:75
  TRACK 129 AUDIO
    TITLE "TOEIC LR Kinnojyukugo_02_129"
    INDEX 01 03:30:49
  TRACK 130 AUDIO
    TITLE "TOEIC LR Kinnojyukugo_02_130"
    INDEX 01 03:33:46
  TRACK 131 AUDIO
    TITLE "TOEIC LR Kinnojyukugo_02_131"
    INDEX 01 03:36:60
  TRACK 132 AUDIO
    TITLE "TOEIC LR Kinnojyukugo_02_132"
    INDEX 01 03:37:71
  TRACK 133 AUDIO
    TITLE "TOEIC LR Kinnojyukugo_02_133"
    INDEX 01 03:39:29
  TRACK 134 AUDIO
    TITLE "TOEIC LR Kinnojyukugo_02_134"
    INDEX 01 03:40:05
  TRACK 135 AUDIO
    TITLE "TOEIC LR Kinnojyukugo_02_135"
    INDEX 01 03:42:56
  TRACK 136 AUDIO
    TITLE "TOEIC LR Kinnojyukugo_02_136"
    INDEX 01 03:44:14
  TRACK 137 AUDIO
    TITLE "TOEIC LR Kinnojyukugo_02_137"
    INDEX 01 03:45:25
  TRACK 138 AUDIO
    TITLE "TOEIC LR Kinnojyukugo_02_138"
    INDEX 01 03:46:39
  TRACK 139 AUDIO
    TITLE "TOEIC LR Kinnojyukugo_02_139"
    INDEX 01 03:47:09
  TRACK 140 AUDIO
    TITLE "TOEIC LR Kinnojyukugo_02_140"
    INDEX 01 03:50:05
  TRACK 141 AUDIO
    TITLE "TOEIC LR Kinnojyukugo_02_141"
    INDEX 01 03:51:52
  TRACK 142 AUDIO
    TITLE "TOEIC LR Kinnojyukugo_02_142"
    INDEX 01 03:52:73
  TRACK 143 AUDIO
    TITLE "TOEIC LR Kinnojyukugo_02_143"
    INDEX 01 03:55:40
  TRACK 144 AUDIO
    TITLE "TOEIC LR Kinnojyukugo_02_144"
    INDEX 01 03:56:12
  TRACK 145 AUDIO
    TITLE "TOEIC LR Kinnojyukugo_02_145"
    INDEX 01 03:59:24
  TRACK 146 AUDIO
    TITLE "TOEIC LR Kinnojyukugo_02_146"
    INDEX 01 04:01:38
  TRACK 147 AUDIO
    TITLE "TOEIC LR Kinnojyukugo_02_147"
    INDEX 01 04:02:49
  TRACK 148 AUDIO
    TITLE "TOEIC LR Kinnojyukugo_02_148"
    INDEX 01 04:03:66
  TRACK 149 AUDIO
    TITLE "TOEIC LR Kinnojyukugo_02_149"
    INDEX 01 04:04:40
  TRACK 150 AUDIO
    TITLE "TOEIC LR Kinnojyukugo_02_150"
    INDEX 01 04:08:40
  TRACK 151 AUDIO
    TITLE "TOEIC LR Kinnojyukugo_02_151"
    INDEX 01 04:10:49
  TRACK 152 AUDIO
    TITLE "TOEIC LR Kinnojyukugo_02_152"
    INDEX 01 04:11:60
  TRACK 153 AUDIO
    TITLE "TOEIC LR Kinnojyukugo_02_153"
    INDEX 01 04:13:53
  TRACK 154 AUDIO
    TITLE "TOEIC LR Kinnojyukugo_02_154"
    INDEX 01 04:14:31
  TRACK 155 AUDIO
    TITLE "TOEIC LR Kinnojyukugo_02_155"
    INDEX 01 04:16:24
  TRACK 156 AUDIO
    TITLE "TOEIC LR Kinnojyukugo_02_156"
    INDEX 01 04:18:05
  TRACK 157 AUDIO
    TITLE "TOEIC LR Kinnojyukugo_02_157"
    INDEX 01 04:19:18
  TRACK 158 AUDIO
    TITLE "TOEIC LR Kinnojyukugo_02_158"
    INDEX 01 04:20:36
  TRACK 159 AUDIO
    TITLE "TOEIC LR Kinnojyukugo_02_159"
    INDEX 01 04:21:11
  TRACK 160 AUDIO
    TITLE "TOEIC LR Kinnojyukugo_02_160"
    INDEX 01 04:23:36
  TRACK 161 AUDIO
    TITLE "TOEIC LR Kinnojyukugo_02_161"
    INDEX 01 04:26:30
  TRACK 162 AUDIO
    TITLE "TOEIC LR Kinnojyukugo_02_162"
    INDEX 01 04:27:43
  TRACK 163 AUDIO
    TITLE "TOEIC LR Kinnojyukugo_02_163"
    INDEX 01 04:29:09
  TRACK 164 AUDIO
    TITLE "TOEIC LR Kinnojyukugo_02_164"
    INDEX 01 04:29:60
  TRACK 165 AUDIO
    TITLE "TOEIC LR Kinnojyukugo_02_165"
    INDEX 01 04:33:60
  TRACK 166 AUDIO
    TITLE "TOEIC LR Kinnojyukugo_02_166"
    INDEX 01 04:37:71
  TRACK 167 AUDIO
    TITLE "TOEIC LR Kinnojyukugo_02_167"
    INDEX 01 04:39:07
  TRACK 168 AUDIO
    TITLE "TOEIC LR Kinnojyukugo_02_168"
    INDEX 01 04:40:32
  TRACK 169 AUDIO
    TITLE "TOEIC LR Kinnojyukugo_02_169"
    INDEX 01 04:41:06
  TRACK 170 AUDIO
    TITLE "TOEIC LR Kinnojyukugo_02_170"
    INDEX 01 04:44:24
  TRACK 171 AUDIO
    TITLE "TOEIC LR Kinnojyukugo_02_171"
    INDEX 01 04:48:48
  TRACK 172 AUDIO
    TITLE "TOEIC LR Kinnojyukugo_02_172"
    INDEX 01 04:49:57
  TRACK 173 AUDIO
    TITLE "TOEIC LR Kinnojyukugo_02_173"
    INDEX 01 04:51:15
  TRACK 174 AUDIO
    TITLE "TOEIC LR Kinnojyukugo_02_174"
    INDEX 01 04:51:67
  TRACK 175 AUDIO
    TITLE "TOEIC LR Kinnojyukugo_02_175"
    INDEX 01 04:55:01
  TRACK 176 AUDIO
    TITLE "TOEIC LR Kinnojyukugo_02_176"
    INDEX 01 05:00:35
  TRACK 177 AUDIO
    TITLE "TOEIC LR Kinnojyukugo_02_177"
    INDEX 01 05:01:48
  TRACK 178 AUDIO
    TITLE "TOEIC LR Kinnojyukugo_02_178"
    INDEX 01 05:02:73
  TRACK 179 AUDIO
    TITLE "TOEIC LR Kinnojyukugo_02_179"
    INDEX 01 05:03:47
  TRACK 180 AUDIO
    TITLE "TOEIC LR Kinnojyukugo_02_180"
    INDEX 01 05:06:49
  TRACK 181 AUDIO
    TITLE "TOEIC LR Kinnojyukugo_02_181"
    INDEX 01 05:09:61
  TRACK 182 AUDIO
    TITLE "TOEIC LR Kinnojyukugo_02_182"
    INDEX 01 05:10:75
  TRACK 183 AUDIO
    TITLE "TOEIC LR Kinnojyukugo_02_183"
    INDEX 01 05:12:34
  TRACK 184 AUDIO
    TITLE "TOEIC LR Kinnojyukugo_02_184"
    INDEX 01 05:13:10
  TRACK 185 AUDIO
    TITLE "TOEIC LR Kinnojyukugo_02_185"
    INDEX 01 05:16:52
  TRACK 186 AUDIO
    TITLE "TOEIC LR Kinnojyukugo_02_186"
    INDEX 01 05:18:66
  TRACK 187 AUDIO
    TITLE "TOEIC LR Kinnojyukugo_02_187"
    INDEX 01 05:20:04
  TRACK 188 AUDIO
    TITLE "TOEIC LR Kinnojyukugo_02_188"
    INDEX 01 05:21:14
  TRACK 189 AUDIO
    TITLE "TOEIC LR Kinnojyukugo_02_189"
    INDEX 01 05:21:65
  TRACK 190 AUDIO
    TITLE "TOEIC LR Kinnojyukugo_02_190"
    INDEX 01 05:25:64
  TRACK 191 AUDIO
    TITLE "TOEIC LR Kinnojyukugo_02_191"
    INDEX 01 05:28:71
  TRACK 192 AUDIO
    TITLE "TOEIC LR Kinnojyukugo_02_192"
    INDEX 01 05:30:09
  TRACK 193 AUDIO
    TITLE "TOEIC LR Kinnojyukugo_02_193"
    INDEX 01 05:31:32
  TRACK 194 AUDIO
    TITLE "TOEIC LR Kinnojyukugo_02_194"
    INDEX 01 05:32:08
  TRACK 195 AUDIO
    TITLE "TOEIC LR Kinnojyukugo_02_195"
    INDEX 01 05:37:05
  TRACK 196 AUDIO
    TITLE "TOEIC LR Kinnojyukugo_02_196"
    INDEX 01 05:42:47
  TRACK 197 AUDIO
    TITLE "TOEIC LR Kinnojyukugo_02_197"
    INDEX 01 05:43:62
  TRACK 198 AUDIO
    TITLE "TOEIC LR Kinnojyukugo_02_198"
    INDEX 01 05:45:14
  TRACK 199 AUDIO
    TITLE "TOEIC LR Kinnojyukugo_02_199"
    INDEX 01 05:45:63
  TRACK 200 AUDIO
    TITLE "TOEIC LR Kinnojyukugo_02_200"
    INDEX 01 05:47:44
  TRACK 201 AUDIO
    TITLE "TOEIC LR Kinnojyukugo_02_201"
    INDEX 01 05:48:69
  TRACK 202 AUDIO
    TITLE "TOEIC LR Kinnojyukugo_02_202"
    INDEX 01 05:50:07
  TRACK 203 AUDIO
    TITLE "TOEIC LR Kinnojyukugo_02_203"
    INDEX 01 05:53:31
  TRACK 204 AUDIO
    TITLE "TOEIC LR Kinnojyukugo_02_204"
    INDEX 01 05:54:07
  TRACK 205 AUDIO
    TITLE "TOEIC LR Kinnojyukugo_02_205"
    INDEX 01 05:55:63
  TRACK 206 AUDIO
    TITLE "TOEIC LR Kinnojyukugo_02_206"
    INDEX 01 06:01:11
  TRACK 207 AUDIO
    TITLE "TOEIC LR Kinnojyukugo_02_207"
    INDEX 01 06:02:26
  TRACK 208 AUDIO
    TITLE "TOEIC LR Kinnojyukugo_02_208"
    INDEX 01 06:04:72
  TRACK 209 AUDIO
    TITLE "TOEIC LR Kinnojyukugo_02_209"
    INDEX 01 06:05:50
  TRACK 210 AUDIO
    TITLE "TOEIC LR Kinnojyukugo_02_210"
    INDEX 01 06:10:49
  TRACK 211 AUDIO
    TITLE "TOEIC LR Kinnojyukugo_02_211"
    INDEX 01 06:12:46
  TRACK 212 AUDIO
    TITLE "TOEIC LR Kinnojyukugo_02_212"
    INDEX 01 06:13:73
  TRACK 213 AUDIO
    TITLE "TOEIC LR Kinnojyukugo_02_213"
    INDEX 01 06:15:41
  TRACK 214 AUDIO
    TITLE "TOEIC LR Kinnojyukugo_02_214"
    INDEX 01 06:16:15
  TRACK 215 AUDIO
    TITLE "TOEIC LR Kinnojyukugo_02_215"
    INDEX 01 06:19:70
  TRACK 216 AUDIO
    TITLE "TOEIC LR Kinnojyukugo_02_216"
    INDEX 01 06:21:24
  TRACK 217 AUDIO
    TITLE "TOEIC LR Kinnojyukugo_02_217"
    INDEX 01 06:22:41
  TRACK 218 AUDIO
    TITLE "TOEIC LR Kinnojyukugo_02_218"
    INDEX 01 06:24:04
  TRACK 219 AUDIO
    TITLE "TOEIC LR Kinnojyukugo_02_219"
    INDEX 01 06:24:71
  TRACK 220 AUDIO
    TITLE "TOEIC LR Kinnojyukugo_02_220"
    INDEX 01 06:29:06
  TRACK 221 AUDIO
    TITLE "TOEIC LR Kinnojyukugo_02_221"
    INDEX 01 06:33:33
  TRACK 222 AUDIO
    TITLE "TOEIC LR Kinnojyukugo_02_222"
    INDEX 01 06:34:44
  TRACK 223 AUDIO
    TITLE "TOEIC LR Kinnojyukugo_02_223"
    INDEX 01 06:36:02
  TRACK 224 AUDIO
    TITLE "TOEIC LR Kinnojyukugo_02_224"
    INDEX 01 06:36:51
  TRACK 225 AUDIO
    TITLE "TOEIC LR Kinnojyukugo_02_225"
    INDEX 01 06:39:33
  TRACK 226 AUDIO
    TITLE "TOEIC LR Kinnojyukugo_02_226"
    INDEX 01 06:43:04
  TRACK 227 AUDIO
    TITLE "TOEIC LR Kinnojyukugo_02_227"
    INDEX 01 06:44:15
  TRACK 228 AUDIO
    TITLE "TOEIC LR Kinnojyukugo_02_228"
    INDEX 01 06:45:69
  TRACK 229 AUDIO
    TITLE "TOEIC LR Kinnojyukugo_02_229"
    INDEX 01 06:46:45
  TRACK 230 AUDIO
    TITLE "TOEIC LR Kinnojyukugo_02_230"
    INDEX 01 06:49:75
  TRACK 231 AUDIO
    TITLE "TOEIC LR Kinnojyukugo_02_231"
    INDEX 01 06:53:04
  TRACK 232 AUDIO
    TITLE "TOEIC LR Kinnojyukugo_02_232"
    INDEX 01 06:54:15
  TRACK 233 AUDIO
    TITLE "TOEIC LR Kinnojyukugo_02_233"
    INDEX 01 06:55:40
  TRACK 234 AUDIO
    TITLE "TOEIC LR Kinnojyukugo_02_234"
    INDEX 01 06:56:14
  TRACK 235 AUDIO
    TITLE "TOEIC LR Kinnojyukugo_02_235"
    INDEX 01 06:58:46
  TRACK 236 AUDIO
    TITLE "TOEIC LR Kinnojyukugo_02_236"
    INDEX 01 07:04:55
  TRACK 237 AUDIO
    TITLE "TOEIC LR Kinnojyukugo_02_237"
    INDEX 01 07:05:68
  TRACK 238 AUDIO
    TITLE "TOEIC LR Kinnojyukugo_02_238"
    INDEX 01 07:07:22
  TRACK 239 AUDIO
    TITLE "TOEIC LR Kinnojyukugo_02_239"
    INDEX 01 07:07:73
  TRACK 240 AUDIO
    TITLE "TOEIC LR Kinnojyukugo_02_240"
    INDEX 01 07:10:24
  TRACK 241 AUDIO
    TITLE "TOEIC LR Kinnojyukugo_02_241"
    INDEX 01 07:12:25
  TRACK 242 AUDIO
    TITLE "TOEIC LR Kinnojyukugo_02_242"
    INDEX 01 07:13:38
  TRACK 243 AUDIO
    TITLE "TOEIC LR Kinnojyukugo_02_243"
    INDEX 01 07:14:67
  TRACK 244 AUDIO
    TITLE "TOEIC LR Kinnojyukugo_02_244"
    INDEX 01 07:15:43
  TRACK 245 AUDIO
    TITLE "TOEIC LR Kinnojyukugo_02_245"
    INDEX 01 07:17:61
  TRACK 246 AUDIO
    TITLE "TOEIC LR Kinnojyukugo_02_246"
    INDEX 01 07:19:70
  TRACK 247 AUDIO
    TITLE "TOEIC LR Kinnojyukugo_02_247"
    INDEX 01 07:21:06
  TRACK 248 AUDIO
    TITLE "TOEIC LR Kinnojyukugo_02_248"
    INDEX 01 07:22:59
  TRACK 249 AUDIO
    TITLE "TOEIC LR Kinnojyukugo_02_249"
    INDEX 01 07:23:33
  TRACK 250 AUDIO
    TITLE "TOEIC LR Kinnojyukugo_02_250"
    INDEX 01 07:26:55
  TRACK 251 AUDIO
    TITLE "TOEIC LR Kinnojyukugo_02_251"
    INDEX 01 07:30:13
  TRACK 252 AUDIO
    TITLE "TOEIC LR Kinnojyukugo_02_252"
    INDEX 01 07:31:22
  TRACK 253 AUDIO
    TITLE "TOEIC LR Kinnojyukugo_02_253"
    INDEX 01 07:32:61
  TRACK 254 AUDIO
    TITLE "TOEIC LR Kinnojyukugo_02_254"
    INDEX 01 07:33:37
  TRACK 255 AUDIO
    TITLE "TOEIC LR Kinnojyukugo_02_255"
    INDEX 01 07:36:31
  TRACK 256 AUDIO
    TITLE "TOEIC LR Kinnojyukugo_02_256"
    INDEX 01 07:40:04
  TRACK 257 AUDIO
    TITLE "TOEIC LR Kinnojyukugo_02_257"
    INDEX 01 07:41:17
  TRACK 258 AUDIO
    TITLE "TOEIC LR Kinnojyukugo_02_258"
    INDEX 01 07:42:30
  TRACK 259 AUDIO
    TITLE "TOEIC LR Kinnojyukugo_02_259"
    INDEX 01 07:43:06
  TRACK 260 AUDIO
    TITLE "TOEIC LR Kinnojyukugo_02_260"
    INDEX 01 07:44:39
  TRACK 261 AUDIO
    TITLE "TOEIC LR Kinnojyukugo_02_261"
    INDEX 01 07:46:45
  TRACK 262 AUDIO
    TITLE "TOEIC LR Kinnojyukugo_02_262"
    INDEX 01 07:47:59
  TRACK 263 AUDIO
    TITLE "TOEIC LR Kinnojyukugo_02_263"
    INDEX 01 07:49:18
  TRACK 264 AUDIO
    TITLE "TOEIC LR Kinnojyukugo_02_264"
    INDEX 01 07:49:71
  TRACK 265 AUDIO
    TITLE "TOEIC LR Kinnojyukugo_02_265"
    INDEX 01 07:51:72
  TRACK 266 AUDIO
    TITLE "TOEIC LR Kinnojyukugo_02_266"
    INDEX 01 07:53:28
  TRACK 267 AUDIO
    TITLE "TOEIC LR Kinnojyukugo_02_267"
    INDEX 01 07:54:41
  TRACK 268 AUDIO
    TITLE "TOEIC LR Kinnojyukugo_02_268"
    INDEX 01 07:56:50
  TRACK 269 AUDIO
    TITLE "TOEIC LR Kinnojyukugo_02_269"
    INDEX 01 07:57:26
  TRACK 270 AUDIO
    TITLE "TOEIC LR Kinnojyukugo_02_270"
    INDEX 01 07:59:34
  TRACK 271 AUDIO
    TITLE "TOEIC LR Kinnojyukugo_02_271"
    INDEX 01 08:06:23
  TRACK 272 AUDIO
    TITLE "TOEIC LR Kinnojyukugo_02_272"
    INDEX 01 08:07:30
  TRACK 273 AUDIO
    TITLE "TOEIC LR Kinnojyukugo_02_273"
    INDEX 01 08:08:47
  TRACK 274 AUDIO
    TITLE "TOEIC LR Kinnojyukugo_02_274"
    INDEX 01 08:09:27
  TRACK 275 AUDIO
    TITLE "TOEIC LR Kinnojyukugo_02_275"
    INDEX 01 08:13:38
  TRACK 276 AUDIO
    TITLE "TOEIC LR Kinnojyukugo_02_276"
    INDEX 01 08:18:20
  TRACK 277 AUDIO
    TITLE "TOEIC LR Kinnojyukugo_02_277"
    INDEX 01 08:19:33
  TRACK 278 AUDIO
    TITLE "TOEIC LR Kinnojyukugo_02_278"
    INDEX 01 08:20:74
  TRACK 279 AUDIO
    TITLE "TOEIC LR Kinnojyukugo_02_279"
    INDEX 01 08:21:50
  TRACK 280 AUDIO
    TITLE "TOEIC LR Kinnojyukugo_02_280"
    INDEX 01 08:25:69
  TRACK 281 AUDIO
    TITLE "TOEIC LR Kinnojyukugo_02_281"
    INDEX 01 08:31:11
  TRACK 282 AUDIO
    TITLE "TOEIC LR Kinnojyukugo_02_282"
    INDEX 01 08:32:24
  TRACK 283 AUDIO
    TITLE "TOEIC LR Kinnojyukugo_02_283"
    INDEX 01 08:33:51
  TRACK 284 AUDIO
    TITLE "TOEIC LR Kinnojyukugo_02_284"
    INDEX 01 08:34:25
  TRACK 285 AUDIO
    TITLE "TOEIC LR Kinnojyukugo_02_285"
    INDEX 01 08:37:53
  TRACK 286 AUDIO
    TITLE "TOEIC LR Kinnojyukugo_02_286"
    INDEX 01 08:42:20
  TRACK 287 AUDIO
    TITLE "TOEIC LR Kinnojyukugo_02_287"
    INDEX 01 08:43:32
  TRACK 288 AUDIO
    TITLE "TOEIC LR Kinnojyukugo_02_288"
    INDEX 01 08:45:03
  TRACK 289 AUDIO
    TITLE "TOEIC LR Kinnojyukugo_02_289"
    INDEX 01 08:45:54
  TRACK 290 AUDIO
    TITLE "TOEIC LR Kinnojyukugo_02_290"
    INDEX 01 08:47:71
  TRACK 291 AUDIO
    TITLE "TOEIC LR Kinnojyukugo_02_291"
    INDEX 01 08:52:11
  TRACK 292 AUDIO
    TITLE "TOEIC LR Kinnojyukugo_02_292"
    INDEX 01 08:53:30
  TRACK 293 AUDIO
    TITLE "TOEIC LR Kinnojyukugo_02_293"
    INDEX 01 08:54:61
  TRACK 294 AUDIO
    TITLE "TOEIC LR Kinnojyukugo_02_294"
    INDEX 01 08:55:39
  TRACK 295 AUDIO
    TITLE "TOEIC LR Kinnojyukugo_02_295"
    INDEX 01 08:57:59
  TRACK 296 AUDIO
    TITLE "TOEIC LR Kinnojyukugo_02_296"
    INDEX 01 08:59:17
  TRACK 297 AUDIO
    TITLE "TOEIC LR Kinnojyukugo_02_297"
    INDEX 01 09:00:26
  TRACK 298 AUDIO
    TITLE "TOEIC LR Kinnojyukugo_02_298"
    INDEX 01 09:01:34
  TRACK 299 AUDIO
    TITLE "TOEIC LR Kinnojyukugo_02_299"
    INDEX 01 09:02:02
  TRACK 300 AUDIO
    TITLE "TOEIC LR Kinnojyukugo_02_300"
    INDEX 01 09:04:16
  TRACK 301 AUDIO
    TITLE "TOEIC LR Kinnojyukugo_02_301"
    INDEX 01 09:05:45
